<svg width="365" height="81" viewBox="0 0 365 81" fill="none" xmlns="http://www.w3.org/2000/svg">
<path d="M235.63 67.5585L265.73 74.6454L291.076 55.7471L322.76 72.2831L356.027 67.5585L341.77 33.3052L291.076 45.1167L262.561 33.3052L232.462 36.8487L235.63 67.5585Z" fill="#F1A501"/>
<path d="M0.919922 55.8982V50.7909L20.3038 48.1829V55.2462C20.401 59.0857 21.7127 61.9835 24.2389 63.9395C26.8623 65.823 30.3116 66.7648 34.5867 66.7648C38.7647 66.7648 42.0682 65.7506 44.4973 63.7221C47.0235 61.6937 48.2866 58.9771 48.2866 55.5722V2.32597H68.3992V55.5722C68.3992 62.6717 65.2414 68.6845 58.9259 73.6107C52.6103 78.5369 44.5458 81 34.7324 81C24.5304 81 16.3202 78.718 10.1018 74.1541C3.98054 69.5176 0.919922 63.4324 0.919922 55.8982Z" fill="black"/>
<path d="M73.0209 64.8088C73.0209 60.2448 75.0127 56.5864 78.9964 53.8336C82.98 51.0807 88.1296 49.342 94.4452 48.6176L112.08 46.6616C115.675 46.2994 117.473 45.0316 117.473 42.8583C117.473 40.8299 116.404 39.1637 114.266 37.8597C112.226 36.5557 109.262 35.9037 105.376 35.9037C101.295 35.9037 98.0402 36.7368 95.6111 38.403C93.2792 40.0692 91.9676 42.1339 91.6761 44.597L74.4783 41.8803C75.1585 37.2439 78.2191 33.1508 83.6602 29.6011C89.1013 26.0513 96.2913 24.2765 105.23 24.2765C115.918 24.2765 123.788 26.1962 128.841 30.0357C133.893 33.8028 136.419 38.6566 136.419 44.597V70.8941C136.419 74.0816 136.711 76.9069 137.294 79.37H119.513C119.027 77.7762 118.784 75.6392 118.784 72.9587C114.218 78.2471 107.173 80.8913 97.6516 80.8913C90.2672 80.8913 84.2917 79.2976 79.7251 76.11C75.2556 72.9225 73.0209 69.1554 73.0209 64.8088ZM101.732 70.1334C106.299 70.1334 110.04 69.1916 112.955 67.3081C115.967 65.3521 117.473 62.1646 117.473 57.7455V55.3549L101.295 57.2022C95.3682 57.8542 92.4048 60.0999 92.4048 63.9395C92.4048 65.6781 93.2307 67.1632 94.8824 68.3948C96.5342 69.5539 98.8175 70.1334 101.732 70.1334Z" fill="black"/>
<path d="M212.368 0.695984V69.6988C212.368 73.2485 212.562 76.4723 212.951 79.37H194.441C193.955 77.5589 193.713 75.4943 193.713 73.1761C192.061 75.4218 189.437 77.2329 185.842 78.6093C182.345 79.9858 178.264 80.674 173.6 80.674C163.398 80.674 154.993 78.0298 148.386 72.7414C141.876 67.3805 138.621 60.6433 138.621 52.5296C138.621 44.6332 141.828 38.0046 148.241 32.6437C154.75 27.2829 163.009 24.6025 173.017 24.6025C183.316 24.6025 190.069 26.812 193.275 31.2311V0.695984H212.368ZM158.151 52.5296C158.151 57.2384 159.803 60.9693 163.106 63.7221C166.41 66.4026 170.685 67.7428 175.932 67.7428C181.081 67.7428 185.308 66.3663 188.612 63.6135C191.915 60.8606 193.567 57.1297 193.567 52.4209C193.567 47.7845 191.915 44.1623 188.612 41.5543C185.308 38.8739 181.081 37.5337 175.932 37.5337C170.782 37.5337 166.507 38.8739 163.106 41.5543C159.803 44.2347 158.151 47.8932 158.151 52.5296Z" fill="black"/>
<path d="M240.974 63.8308C244.569 66.5112 248.893 67.8514 253.946 67.8514C258.998 67.8514 263.273 66.5112 266.771 63.8308C270.366 61.1504 272.164 57.4195 272.164 52.6382C272.164 47.8569 270.366 44.1261 266.771 41.4457C263.273 38.7652 258.998 37.425 253.946 37.425C248.893 37.425 244.569 38.7652 240.974 41.4457C237.477 44.1261 235.728 47.8569 235.728 52.6382C235.728 57.4195 237.477 61.1504 240.974 63.8308ZM226.983 32.3177C234.173 26.9569 243.161 24.2765 253.946 24.2765C264.731 24.2765 273.67 26.9569 280.762 32.3177C287.952 37.6786 291.547 44.4521 291.547 52.6382C291.547 60.8244 287.952 67.5979 280.762 72.9587C273.67 78.3196 264.731 81 253.946 81C243.161 81 234.173 78.3196 226.983 72.9587C219.89 67.5979 216.344 60.8244 216.344 52.6382C216.344 44.4521 219.89 37.6786 226.983 32.3177Z" fill="black"/>
<path d="M314.427 63.8308C318.022 66.5112 322.346 67.8514 327.398 67.8514C332.451 67.8514 336.726 66.5112 340.224 63.8308C343.819 61.1504 345.616 57.4195 345.616 52.6382C345.616 47.8569 343.819 44.1261 340.224 41.4457C336.726 38.7652 332.451 37.425 327.398 37.425C322.346 37.425 318.022 38.7652 314.427 41.4457C310.929 44.1261 309.18 47.8569 309.18 52.6382C309.18 57.4195 310.929 61.1504 314.427 63.8308ZM300.436 32.3177C307.626 26.9569 316.613 24.2765 327.398 24.2765C338.183 24.2765 347.122 26.9569 354.215 32.3177C361.405 37.6786 365 44.4521 365 52.6382C365 60.8244 361.405 67.5979 354.215 72.9587C347.122 78.3196 338.183 81 327.398 81C316.613 81 307.626 78.3196 300.436 72.9587C293.343 67.5979 289.796 60.8244 289.796 52.6382C289.796 44.4521 293.343 37.6786 300.436 32.3177Z" fill="black"/>
</svg>
