<svg width="167" height="154" viewBox="0 0 167 154" fill="none" xmlns="http://www.w3.org/2000/svg">
<path d="M70.6999 86.8472C72.0582 87.1514 73.3812 87.715 74.5868 88.5024C77.7276 90.5037 79.5549 93.3604 78.6679 94.8826C77.781 96.4047 74.5159 96.0154 71.3752 94.0141C70.1534 93.2545 69.068 92.2837 68.1858 91.1618C67.7764 90.6197 67.703 89.9442 67.9982 89.4393L69.1504 87.4619C69.4435 86.9554 70.0516 86.7145 70.6999 86.8472Z" fill="#D5D6DB"/>
<path d="M78.5869 59.8541C79.5719 60.0749 80.5313 60.4837 81.4055 61.0547C83.6824 62.5055 85.0081 64.5769 84.3655 65.6797C83.723 66.7825 81.3545 66.5 79.0779 65.0493C78.192 64.4983 77.4051 63.794 76.7653 62.9804C76.4688 62.5874 76.4157 62.0981 76.6296 61.732L77.4639 60.3002C77.6762 59.9331 78.1168 59.758 78.5869 59.8541Z" fill="#D5D6DB"/>
<path d="M91.401 60.9845C91.6203 60.9601 91.8541 61.0185 92.0568 61.148L97.405 64.5562C97.8524 64.8404 98.0314 65.3878 97.8044 65.779C97.7526 65.8686 97.6815 65.9451 97.5953 66.0041L84.4137 75.0891L66.5802 63.7244L91.401 60.9845Z" fill="#029BC5"/>
<path d="M35.0243 59.6999L83.5561 90.252L112.269 101.677L126.912 104.588L128.523 101.851L47.6278 51.9044C45.217 50.4095 42.5314 49.4919 39.8426 49.2448C38.665 49.1429 37.5022 49.1821 36.3811 49.3609C35.3871 49.5116 34.4441 49.8023 33.5805 50.2244C32.6166 50.7027 30.7819 50.7578 30.1877 51.7106C30.1857 51.7091 28.7838 56.0835 35.0243 59.6999Z" fill="#E1E6E9"/>
<path d="M82.9128 86.2095L103.908 119.679C104.17 120.15 104.015 120.676 103.561 120.855C103.282 120.965 102.941 120.922 102.655 120.74L97.3108 117.35C96.283 116.697 95.3729 115.869 94.6367 114.915L53.9203 67.0462L82.9128 86.2095Z" fill="#029BC5"/>
<path d="M135.892 85.092C136.243 84.9723 136.659 85.0344 137.011 85.2584L141.429 88.0718C142.031 88.4549 142.27 89.1913 141.965 89.717C141.906 89.8169 141.831 89.9049 141.74 89.9773L129.363 99.8897L116.35 91.7616L135.892 85.092Z" fill="#029BC5"/>
<path d="M125.215 101.677L131.876 111.006C131.974 111.14 131.951 111.308 131.825 111.382C131.734 111.435 131.61 111.425 131.509 111.358L127.381 108.742C127.349 108.721 127.32 108.696 127.296 108.667L117.562 96.832L125.215 101.677Z" fill="#029BC5"/>
<path d="M37.1776 49.7631C38.3321 49.5777 39.5297 49.5381 40.7426 49.6447C41.9235 51.2958 42.6782 53.1505 42.9316 55.0239C42.9501 55.4003 42.6468 55.6711 42.2539 55.6289C42.1317 55.6157 42.0103 55.5728 41.9009 55.504L34.2931 50.6597C35.1826 50.2211 36.1538 49.9193 37.1776 49.7631Z" fill="#029BC5"/>
<path d="M53.7568 58.6712L48.7898 55.5343L44.1632 63.4033L49.1302 66.5403L53.7568 58.6712Z" fill="#D5D6DB"/>
<path d="M56.8824 61.7834C57.4809 62.1626 57.7201 62.8914 57.4163 63.4111L56.924 64.2531C56.6001 64.7595 55.8608 64.8486 55.2726 64.4519C54.7127 64.0741 54.4873 63.3874 54.7571 62.8804L55.2494 62.0384C55.553 61.5192 56.2838 61.4049 56.8824 61.7834Z" fill="#3A556A"/>
<path d="M61.3467 64.5559C61.9452 64.9351 62.1845 65.6639 61.8806 66.1836L61.3883 67.0255C61.0645 67.532 60.3252 67.6211 59.7369 67.2244C59.1771 66.8466 58.9516 66.1599 59.2214 65.6529L59.7137 64.8109C60.0176 64.2918 60.7484 64.1775 61.3467 64.5559Z" fill="#3A556A"/>
<path d="M65.8126 67.3293C66.4105 67.7089 66.6488 68.4368 66.3452 68.9561L65.8529 69.798C65.5291 70.3045 64.7898 70.3935 64.2015 69.9968C63.6417 69.6191 63.4162 68.9324 63.686 68.4254L64.1783 67.5834C64.4822 67.0638 65.2138 66.95 65.8126 67.3293Z" fill="#3A556A"/>
<path d="M70.2769 70.1016C70.8748 70.4813 71.1132 71.2092 70.8096 71.7285L70.3173 72.5705C69.9934 73.0769 69.2541 73.166 68.6659 72.7693C68.106 72.3915 67.8806 71.7048 68.1504 71.1978L68.6427 70.3558C68.9468 69.8363 69.6784 69.7225 70.2769 70.1016V70.1016Z" fill="#3A556A"/>
<path d="M74.7409 72.8743C75.3391 73.2541 75.5777 73.9824 75.2739 74.5018L74.7813 75.3442C74.4776 75.8635 73.7463 75.9772 73.148 75.5982C72.5496 75.2192 72.3107 74.491 72.6144 73.9717L73.107 73.1294C73.4099 72.6097 74.1409 72.4952 74.7396 72.8735C74.7401 72.8738 74.7404 72.874 74.7409 72.8743Z" fill="#3A556A"/>
<path d="M79.2052 75.6468C79.8035 76.0266 80.042 76.7548 79.7382 77.2743L79.2456 78.1166C78.9419 78.6359 78.2107 78.7496 77.6123 78.3706C77.0139 77.9917 76.775 77.2635 77.0787 76.7442L77.5713 75.9019C77.8742 75.3821 78.6052 75.2676 79.204 75.646C79.2045 75.6463 79.205 75.6466 79.2052 75.6468Z" fill="#3A556A"/>
<path d="M83.6699 78.4193C84.2681 78.7991 84.5066 79.5273 84.2028 80.0468L83.7102 80.8891C83.4058 81.4079 82.6742 81.5205 82.0765 81.141C81.4798 80.7621 81.2414 80.0355 81.5436 79.5169L82.0362 78.6745C82.3398 78.1549 83.071 78.0406 83.6699 78.4193Z" fill="#3A556A"/>
<path d="M88.1345 81.1918C88.7327 81.5716 88.9712 82.2998 88.6674 82.8193L88.1748 83.6617C87.8704 84.1805 87.1388 84.293 86.5411 83.9135C85.9444 83.5347 85.706 82.808 86.0082 82.2894L86.5008 81.447C86.8044 80.9274 87.5356 80.8131 88.1345 81.1918Z" fill="#3A556A"/>
<path d="M92.5987 83.9642C93.1969 84.344 93.4354 85.0722 93.1317 85.5917L92.6391 86.434C92.3346 86.9528 91.603 87.0654 91.0053 86.6859C90.4086 86.3071 90.1702 85.5804 90.4725 85.0618L90.9651 84.2195C91.2688 83.7 92.0001 83.5857 92.5987 83.9642Z" fill="#3A556A"/>
<path d="M97.0645 86.7374C97.6629 87.1164 97.9018 87.8446 97.5981 88.3639L97.5975 88.365L97.1049 89.2073C96.8005 89.7261 96.0689 89.8387 95.4711 89.4592C94.8744 89.0803 94.636 88.3537 94.9383 87.835L95.4309 86.9927C95.7344 86.473 96.4656 86.3587 97.0645 86.7374Z" fill="#3A556A"/>
<path d="M101.528 89.5091C102.126 89.8881 102.365 90.6163 102.061 91.1355L102.061 91.1366L101.568 91.9789C101.264 92.4977 100.532 92.6103 99.9343 92.2308C99.3376 91.852 99.0992 91.1253 99.4015 90.6067L99.8941 89.7644C100.198 89.2449 100.929 89.1306 101.528 89.5091Z" fill="#3A556A"/>
</svg>
